<svg width="246" height="28" viewBox="0 0 246 28" fill="none" xmlns="http://www.w3.org/2000/svg">
<path d="M7.728 0.972C10.536 0.972 12.744 1.68 14.352 3.096C15.96 4.512 16.764 6.492 16.764 9.036C16.764 10.068 16.608 11.088 16.296 12.096C15.984 13.08 15.48 13.98 14.784 14.796C14.112 15.588 13.224 16.236 12.12 16.74C11.016 17.22 9.672 17.46 8.088 17.46H4.236V27H0.743999V0.972H7.728ZM8.088 14.04C9.096 14.04 9.936 13.884 10.608 13.572C11.28 13.236 11.808 12.804 12.192 12.276C12.6 11.748 12.888 11.208 13.056 10.656C13.224 10.08 13.308 9.564 13.308 9.108C13.308 8.412 13.14 7.692 12.804 6.948C12.492 6.204 11.964 5.58 11.22 5.076C10.5 4.572 9.516 4.32 8.268 4.32H4.236V14.04H8.088Z" fill="white"/>
<path d="M28.2382 27.36C26.5582 27.36 25.0942 27.024 23.8462 26.352C22.6222 25.656 21.6742 24.708 21.0022 23.508C20.3542 22.308 20.0302 20.952 20.0302 19.44C20.0302 17.976 20.3902 16.644 21.1102 15.444C21.8542 14.22 22.8502 13.26 24.0982 12.564C25.3702 11.844 26.7742 11.484 28.3102 11.484C30.2782 11.484 31.9102 12.06 33.2062 13.212C34.5022 14.364 35.3902 15.948 35.8702 17.964L24.0622 22.104C24.4702 22.848 25.0462 23.436 25.7902 23.868C26.5342 24.276 27.3742 24.48 28.3102 24.48C28.9822 24.48 29.6182 24.36 30.2182 24.12C30.8182 23.88 31.3942 23.568 31.9462 23.184L33.4942 25.668C32.7262 26.172 31.8742 26.58 30.9382 26.892C30.0262 27.204 29.1262 27.36 28.2382 27.36ZM23.3422 19.26C23.3182 19.548 23.3302 19.824 23.3782 20.088L32.0542 16.884C31.7182 16.164 31.2262 15.528 30.5782 14.976C29.9542 14.424 29.1142 14.148 28.0582 14.148C26.6902 14.148 25.5622 14.628 24.6742 15.588C23.7862 16.548 23.3422 17.772 23.3422 19.26Z" fill="white"/>
<path d="M43.0533 12.096L43.2693 14.976C43.7733 13.92 44.5533 13.08 45.6093 12.456C46.6653 11.832 47.8893 11.52 49.2813 11.52C50.6733 11.52 51.8133 11.94 52.7013 12.78C53.6133 13.596 54.0933 14.664 54.1413 15.984V27H50.7573V17.136C50.7093 16.344 50.4573 15.696 50.0013 15.192C49.5693 14.688 48.8853 14.424 47.9493 14.4C46.6533 14.4 45.5613 14.928 44.6733 15.984C43.8093 17.016 43.3773 18.36 43.3773 20.016V27H40.0293V12.096H43.0533Z" fill="white"/>
<path d="M61.3317 14.832C60.5637 14.832 59.9157 14.604 59.3877 14.148C58.8837 13.692 58.6317 13.008 58.6317 12.096V10.656H61.1877V11.124C61.1877 11.532 61.2837 11.796 61.4757 11.916C61.6677 12.036 61.9797 12.096 62.4117 12.096H71.9517L63.4917 24.228H71.8077V27H58.0197L66.4797 14.832H61.3317Z" fill="white"/>
<path d="M76.5918 12.096H79.9398V27H76.5918V12.096ZM76.3398 6.732C76.3398 6.18 76.5438 5.736 76.9518 5.4C77.3838 5.04 77.8518 4.86 78.3558 4.86C78.8598 4.86 79.3158 5.04 79.7238 5.4C80.1318 5.736 80.3358 6.18 80.3358 6.732C80.3358 7.284 80.1318 7.74 79.7238 8.1C79.3158 8.436 78.8598 8.604 78.3558 8.604C77.8518 8.604 77.3838 8.436 76.9518 8.1C76.5438 7.74 76.3398 7.284 76.3398 6.732Z" fill="white"/>
<path d="M84.4716 19.404C84.4716 17.916 84.8196 16.572 85.5156 15.372C86.2356 14.172 87.2196 13.224 88.4676 12.528C89.7156 11.832 91.1436 11.484 92.7516 11.484C94.3596 11.484 95.7756 11.832 96.9996 12.528C98.2236 13.224 99.1716 14.172 99.8436 15.372C100.54 16.572 100.888 17.916 100.888 19.404C100.888 20.892 100.54 22.236 99.8436 23.436C99.1716 24.636 98.2116 25.596 96.9636 26.316C95.7396 27.012 94.3116 27.36 92.6796 27.36C91.0956 27.36 89.6796 27.036 88.4316 26.388C87.2076 25.74 86.2356 24.816 85.5156 23.616C84.8196 22.416 84.4716 21.012 84.4716 19.404ZM87.8556 19.44C87.8556 20.4 88.0596 21.276 88.4676 22.068C88.8996 22.836 89.4756 23.448 90.1956 23.904C90.9156 24.36 91.7316 24.588 92.6436 24.588C93.5796 24.588 94.4076 24.36 95.1276 23.904C95.8476 23.448 96.4116 22.836 96.8196 22.068C97.2516 21.276 97.4676 20.4 97.4676 19.44C97.4676 18.48 97.2516 17.616 96.8196 16.848C96.4116 16.056 95.8476 15.432 95.1276 14.976C94.4076 14.496 93.5796 14.256 92.6436 14.256C91.7316 14.256 90.9036 14.496 90.1596 14.976C89.4396 15.456 88.8756 16.092 88.4676 16.884C88.0596 17.652 87.8556 18.504 87.8556 19.44Z" fill="white"/>
<path d="M108.409 12.096L108.625 14.976C109.129 13.92 109.909 13.08 110.965 12.456C112.021 11.832 113.245 11.52 114.637 11.52C116.029 11.52 117.169 11.94 118.057 12.78C118.969 13.596 119.449 14.664 119.497 15.984V27H116.113V17.136C116.065 16.344 115.813 15.696 115.357 15.192C114.925 14.688 114.241 14.424 113.305 14.4C112.009 14.4 110.917 14.928 110.029 15.984C109.165 17.016 108.733 18.36 108.733 20.016V27H105.385V12.096H108.409Z" fill="white"/>
<path d="M137.502 0.972H140.994V23.616H154.242V27H137.502V0.972Z" fill="white"/>
<path d="M165.98 27.36C164.3 27.36 162.836 27.024 161.588 26.352C160.364 25.656 159.416 24.708 158.744 23.508C158.096 22.308 157.772 20.952 157.772 19.44C157.772 17.976 158.132 16.644 158.852 15.444C159.596 14.22 160.592 13.26 161.84 12.564C163.112 11.844 164.516 11.484 166.052 11.484C168.02 11.484 169.652 12.06 170.948 13.212C172.244 14.364 173.132 15.948 173.612 17.964L161.804 22.104C162.212 22.848 162.788 23.436 163.532 23.868C164.276 24.276 165.116 24.48 166.052 24.48C166.724 24.48 167.36 24.36 167.96 24.12C168.56 23.88 169.136 23.568 169.688 23.184L171.236 25.668C170.468 26.172 169.616 26.58 168.68 26.892C167.768 27.204 166.868 27.36 165.98 27.36ZM161.084 19.26C161.06 19.548 161.072 19.824 161.12 20.088L169.796 16.884C169.46 16.164 168.968 15.528 168.32 14.976C167.696 14.424 166.856 14.148 165.8 14.148C164.432 14.148 163.304 14.628 162.416 15.588C161.528 16.548 161.084 17.772 161.084 19.26Z" fill="white"/>
<path d="M180.795 12.096L181.011 14.976C181.515 13.92 182.295 13.08 183.351 12.456C184.407 11.832 185.631 11.52 187.023 11.52C188.415 11.52 189.555 11.94 190.443 12.78C191.355 13.596 191.835 14.664 191.883 15.984V27H188.499V17.136C188.451 16.344 188.199 15.696 187.743 15.192C187.311 14.688 186.627 14.424 185.691 14.4C184.395 14.4 183.303 14.928 182.415 15.984C181.551 17.016 181.119 18.36 181.119 20.016V27H177.771V12.096H180.795Z" fill="white"/>
<path d="M196.374 19.404C196.374 17.916 196.722 16.572 197.418 15.372C198.138 14.172 199.122 13.224 200.37 12.528C201.618 11.832 203.046 11.484 204.654 11.484C206.262 11.484 207.678 11.832 208.902 12.528C210.126 13.224 211.074 14.172 211.746 15.372C212.442 16.572 212.79 17.916 212.79 19.404C212.79 20.892 212.442 22.236 211.746 23.436C211.074 24.636 210.114 25.596 208.866 26.316C207.642 27.012 206.214 27.36 204.582 27.36C202.998 27.36 201.582 27.036 200.334 26.388C199.11 25.74 198.138 24.816 197.418 23.616C196.722 22.416 196.374 21.012 196.374 19.404ZM199.758 19.44C199.758 20.4 199.962 21.276 200.37 22.068C200.802 22.836 201.378 23.448 202.098 23.904C202.818 24.36 203.634 24.588 204.546 24.588C205.482 24.588 206.31 24.36 207.03 23.904C207.75 23.448 208.314 22.836 208.722 22.068C209.154 21.276 209.37 20.4 209.37 19.44C209.37 18.48 209.154 17.616 208.722 16.848C208.314 16.056 207.75 15.432 207.03 14.976C206.31 14.496 205.482 14.256 204.546 14.256C203.634 14.256 202.806 14.496 202.062 14.976C201.342 15.456 200.778 16.092 200.37 16.884C199.962 17.652 199.758 18.504 199.758 19.44Z" fill="white"/>
<path d="M220.275 12.096L220.527 15.588C220.935 14.748 221.499 14.028 222.219 13.428C222.939 12.804 223.683 12.336 224.451 12.024C225.243 11.688 225.927 11.508 226.503 11.484L226.359 14.832C225.231 14.784 224.235 15.012 223.371 15.516C222.507 15.996 221.835 16.656 221.355 17.496C220.875 18.336 220.635 19.236 220.635 20.196V27H217.287V12.096H220.275Z" fill="white"/>
<path d="M236.699 27.36C235.283 27.36 233.999 27.06 232.847 26.46C231.719 25.86 230.819 24.984 230.147 23.832C229.499 22.656 229.175 21.228 229.175 19.548C229.175 17.868 229.511 16.428 230.183 15.228C230.879 14.028 231.803 13.104 232.955 12.456C234.131 11.808 235.415 11.484 236.807 11.484C238.151 11.484 239.291 11.772 240.227 12.348C241.163 12.924 241.895 13.62 242.423 14.436L242.675 12.096H245.771V27H242.423V24.552C242.135 24.936 241.715 25.344 241.163 25.776C240.635 26.208 239.987 26.58 239.219 26.892C238.475 27.204 237.635 27.36 236.699 27.36ZM237.599 24.588C238.823 24.588 239.867 24.252 240.731 23.58C241.595 22.884 242.159 21.948 242.423 20.772V17.82C242.135 16.788 241.535 15.936 240.623 15.264C239.711 14.592 238.667 14.256 237.491 14.256C236.579 14.256 235.751 14.472 235.007 14.904C234.263 15.336 233.663 15.936 233.207 16.704C232.775 17.472 232.559 18.36 232.559 19.368C232.559 20.352 232.787 21.24 233.243 22.032C233.699 22.8 234.311 23.424 235.079 23.904C235.847 24.36 236.687 24.588 237.599 24.588Z" fill="white"/>
</svg>
